<svg version="1.2" xmlns="http://www.w3.org/2000/svg" viewBox="0 0 894 852" width="894" height="852"><defs><filter x="-50%" y="-50%" width="200%" height="200%" id="f1" ><feDropShadow dx="0" dy="0" stdDeviation="37.5" flood-color="#066b96" flood-opacity=".1"/></filter></defs><style>.a{filter:url(#f1);fill:#fff}</style><path class="a" d="m334 91.5c15.4 0.3 20.3 0.8 29 2.8 5.8 1.4 15.2 4.2 21 6.2 5.8 2.1 13.1 5 16.2 6.6 3.2 1.6 9.7 5.7 14.5 9.1 4.9 3.4 11.7 8.5 15.3 11.4 3.6 2.9 11.1 9.6 16.7 15.1 5.5 5.4 13.6 13.8 18 18.8 4.3 4.9 11 12.8 14.9 17.5 3.9 4.7 10.4 13 14.6 18.5 4.1 5.5 9.9 14 13 19 3.1 4.9 9.3 16 13.8 24.5 4.6 8.5 10.8 19.5 13.8 24.5 3.1 4.9 8.8 13.3 12.6 18.5 3.9 5.2 10.7 13.2 15.1 17.9 4.4 4.6 12.3 12 17.5 16.3 5.2 4.4 14.7 11.4 21 15.6 6.3 4.2 19.1 11.5 28.5 16.2 9.3 4.8 20.6 10 25 11.8 4.4 1.7 13.6 5.4 20.5 8.2 6.9 2.8 17.7 7.1 24 9.5 6.3 2.4 15.1 5.9 19.5 7.8 4.4 1.9 11.8 5.3 16.5 7.7 4.7 2.3 12.3 6.8 17 9.8 5 3.3 12.9 9.9 19.1 16.1 5.8 5.8 12.3 13.3 14.4 16.6 2.2 3.3 5.4 9.4 7.2 13.5 1.8 4.1 4.4 12 5.8 17.5 1.4 5.5 3.1 14.9 3.7 21 0.8 8.1 0.7 14-0.1 22.5-0.7 6.3-2.1 16-3.2 21.5-1.1 5.5-4.2 16.5-6.9 24.5-2.7 8-7.3 19.9-10.3 26.5-3 6.6-6.7 14.2-8.2 17-1.5 2.7-4.1 7.5-5.8 10.5-1.7 3-7 11.3-11.7 18.5-4.8 7.1-12.4 17.7-17 23.5-4.6 5.8-14.1 16.1-21 23-6.9 6.9-18 16.6-24.5 21.5-6.6 5-15.6 11.4-20 14.1-4.4 2.8-10.9 6.7-14.5 8.7-3.6 1.9-11.9 6-18.5 9-6.6 3-17.2 7.3-23.5 9.5-6.3 2.3-15.3 5.2-20 6.6-4.7 1.3-14.8 3.8-22.5 5.4-7.7 1.7-18.7 3.7-24.5 4.6-5.8 0.8-14.8 2-20 2.6-5.2 0.6-17.8 1.3-28 1.4-10.2 0.2-23.7 0-30-0.5-6.3-0.5-17.5-1.8-24.8-2.9-7.2-1.1-17.4-2.9-22.5-4.1-5-1.1-13-3.1-17.7-4.5-4.7-1.4-15.9-5-25-8.1-9.1-3.1-24.2-8.7-33.5-12.6-9.4-3.8-19.1-7.8-21.8-8.8-2.6-1.1-12.7-5.9-22.5-10.8-9.7-4.8-24.7-13-33.2-18.1-8.5-5.1-19.6-12-24.5-15.3-5-3.4-14.4-10.2-21-15.1-6.6-5-17.2-13.6-23.5-19.2-6.3-5.6-16.2-15-22-21-5.8-6-13-13.8-16.1-17.4-3-3.6-8.4-10.3-12-15-3.6-4.7-9-12.3-12-17-3.1-4.7-7.4-11.7-9.6-15.5-2.2-3.9-5.6-10.2-7.6-14-1.9-3.9-5.5-12-8-18-2.5-6.1-6.1-16-8.1-22-2-6.1-5-16.4-6.6-23-1.6-6.6-3.5-16.5-4.4-22-0.8-5.5-2-15-2.6-21-0.6-6.1-1-19.3-1-29.5 0-10.2 0.4-23 1-28.5 0.6-5.5 1.7-14.7 2.6-20.5 0.8-5.8 2.6-16.1 4-23 1.4-6.9 4.5-20.4 7-30 2.5-9.6 6.1-22.7 8-29 1.9-6.3 4.9-15.3 6.6-20 1.7-4.7 4.8-12.8 7-18 2.1-5.2 6.4-14.2 9.5-20 3.1-5.8 8.1-14.3 11.2-19 3.2-4.7 9.1-12.8 13.3-18 4.2-5.2 12.2-14 17.9-19.6 5.7-5.5 13.8-12.7 17.9-16 4.1-3.4 10.6-8.3 14.5-11 3.8-2.8 10.8-7.3 15.5-10.1 4.7-2.8 12.5-7.1 17.5-9.6 4.9-2.6 14.8-6.8 22-9.5 7.1-2.7 17.5-6 23-7.2 5.5-1.3 13.4-2.9 17.5-3.6 5.1-0.9 13.5-1.2 26-0.9z"/></svg>